<?xml version="1.0" encoding="UTF-8"?>
<svg xmlns="http://www.w3.org/2000/svg" version="1.1" width="400" height="400" viewBox="0 0 400 400"><rect x="0" y="0" width="400" height="400" fill="#fefefe"/><g transform="scale(10.811)"><g transform="translate(4.000,4.000)"><path fill-rule="evenodd" d="M10 0L10 2L11 2L11 0ZM12 0L12 1L13 1L13 0ZM14 0L14 2L15 2L15 3L13 3L13 2L12 2L12 4L15 4L15 3L17 3L17 4L18 4L18 5L20 5L20 7L21 7L21 2L20 2L20 4L18 4L18 3L19 3L19 1L21 1L21 0L16 0L16 1L15 1L15 0ZM8 1L8 2L9 2L9 1ZM17 1L17 3L18 3L18 1ZM8 3L8 4L9 4L9 5L8 5L8 7L9 7L9 8L6 8L6 9L5 9L5 8L0 8L0 11L1 11L1 13L0 13L0 14L2 14L2 12L3 12L3 14L5 14L5 12L6 12L6 13L7 13L7 12L8 12L8 14L6 14L6 15L8 15L8 14L10 14L10 15L11 15L11 17L10 17L10 16L8 16L8 17L7 17L7 16L4 16L4 18L3 18L3 20L4 20L4 21L5 21L5 20L4 20L4 19L5 19L5 17L7 17L7 18L6 18L6 19L8 19L8 23L9 23L9 24L8 24L8 29L11 29L11 28L9 28L9 27L11 27L11 26L9 26L9 24L11 24L11 25L12 25L12 26L13 26L13 27L12 27L12 29L13 29L13 28L14 28L14 29L15 29L15 28L14 28L14 27L16 27L16 28L17 28L17 29L18 29L18 28L17 28L17 27L18 27L18 26L17 26L17 27L16 27L16 26L15 26L15 25L12 25L12 23L13 23L13 22L11 22L11 23L10 23L10 20L11 20L11 19L10 19L10 18L11 18L11 17L12 17L12 18L13 18L13 19L12 19L12 21L13 21L13 20L14 20L14 21L15 21L15 20L16 20L16 18L18 18L18 20L17 20L17 21L16 21L16 22L15 22L15 23L14 23L14 24L15 24L15 23L16 23L16 24L17 24L17 25L18 25L18 24L17 24L17 21L18 21L18 23L19 23L19 24L20 24L20 25L19 25L19 27L20 27L20 28L19 28L19 29L20 29L20 28L22 28L22 29L25 29L25 28L26 28L26 29L27 29L27 28L28 28L28 26L29 26L29 24L28 24L28 23L27 23L27 22L29 22L29 20L28 20L28 19L27 19L27 16L28 16L28 15L27 15L27 14L25 14L25 13L27 13L27 12L28 12L28 11L27 11L27 12L26 12L26 11L25 11L25 9L26 9L26 8L25 8L25 9L24 9L24 8L23 8L23 9L22 9L22 8L21 8L21 9L19 9L19 10L17 10L17 9L18 9L18 8L16 8L16 7L17 7L17 6L16 6L16 5L15 5L15 6L14 6L14 8L13 8L13 9L12 9L12 7L13 7L13 5L11 5L11 6L10 6L10 4L11 4L11 3ZM9 6L9 7L10 7L10 6ZM11 6L11 7L12 7L12 6ZM15 6L15 7L16 7L16 6ZM18 6L18 7L19 7L19 6ZM10 8L10 9L6 9L6 10L4 10L4 9L3 9L3 10L4 10L4 11L3 11L3 12L4 12L4 11L6 11L6 12L7 12L7 11L9 11L9 12L11 12L11 13L10 13L10 14L13 14L13 13L12 13L12 11L13 11L13 12L15 12L15 13L14 13L14 15L12 15L12 17L14 17L14 18L16 18L16 17L15 17L15 16L14 16L14 15L15 15L15 14L16 14L16 15L17 15L17 16L18 16L18 17L19 17L19 15L20 15L20 13L25 13L25 11L24 11L24 10L22 10L22 9L21 9L21 10L19 10L19 11L21 11L21 12L18 12L18 11L17 11L17 12L15 12L15 11L14 11L14 10L16 10L16 8L15 8L15 9L14 9L14 10L12 10L12 9L11 9L11 8ZM27 8L27 9L28 9L28 10L29 10L29 9L28 9L28 8ZM1 9L1 11L2 11L2 9ZM10 9L10 11L11 11L11 9ZM6 10L6 11L7 11L7 10ZM16 13L16 14L17 14L17 15L19 15L19 14L17 14L17 13ZM28 13L28 14L29 14L29 13ZM22 14L22 15L24 15L24 14ZM0 15L0 21L1 21L1 15ZM2 15L2 16L3 16L3 15ZM25 15L25 16L24 16L24 17L25 17L25 19L23 19L23 20L25 20L25 21L26 21L26 20L27 20L27 19L26 19L26 17L25 17L25 16L27 16L27 15ZM20 16L20 18L19 18L19 20L18 20L18 21L19 21L19 22L20 22L20 21L19 21L19 20L20 20L20 18L21 18L21 19L22 19L22 18L21 18L21 16ZM22 16L22 17L23 17L23 16ZM8 17L8 18L9 18L9 17ZM28 17L28 18L29 18L29 17ZM14 19L14 20L15 20L15 19ZM6 20L6 21L7 21L7 20ZM21 21L21 24L24 24L24 21ZM22 22L22 23L23 23L23 22ZM25 23L25 25L21 25L21 26L25 26L25 25L26 25L26 24L27 24L27 23ZM22 27L22 28L23 28L23 27ZM24 27L24 28L25 28L25 27ZM26 27L26 28L27 28L27 27ZM0 0L0 7L7 7L7 0ZM1 1L1 6L6 6L6 1ZM2 2L2 5L5 5L5 2ZM29 0L22 0L22 7L29 7ZM28 1L23 1L23 6L28 6ZM27 2L24 2L24 5L27 5ZM0 29L7 29L7 22L0 22ZM1 28L6 28L6 23L1 23ZM2 27L5 27L5 24L2 24Z" fill="#000000"/></g></g></svg>
